<svg width="89" height="37" viewBox="0 0 89 37" fill="none" xmlns="http://www.w3.org/2000/svg">
<path d="M50.549 29.1141H60.065V32.0001H47V4.81706H50.549V29.1141Z" fill="white"/>
<path d="M62.508 18.3891C62.508 15.7371 63.106 13.3581 64.302 11.2521C65.498 9.12007 67.123 7.45606 69.177 6.26006C71.257 5.06406 73.558 4.46606 76.08 4.46606C79.044 4.46606 81.631 5.18106 83.841 6.61106C86.051 8.04106 87.663 10.0691 88.677 12.6951H84.426C83.672 11.0571 82.58 9.79606 81.15 8.91207C79.746 8.02806 78.056 7.58606 76.08 7.58606C74.182 7.58606 72.479 8.02806 70.971 8.91207C69.463 9.79606 68.28 11.0571 67.422 12.6951C66.564 14.3071 66.135 16.2051 66.135 18.3891C66.135 20.5471 66.564 22.4451 67.422 24.0831C68.28 25.6951 69.463 26.9431 70.971 27.8271C72.479 28.7111 74.182 29.1531 76.08 29.1531C78.056 29.1531 79.746 28.7241 81.15 27.8661C82.58 26.9821 83.672 25.7211 84.426 24.0831H88.677C87.663 26.6831 86.051 28.6981 83.841 30.1281C81.631 31.5321 79.044 32.2341 76.08 32.2341C73.558 32.2341 71.257 31.6491 69.177 30.4791C67.123 29.2831 65.498 27.6321 64.302 25.5261C63.106 23.4201 62.508 21.0411 62.508 18.3891Z" fill="white"/>
<circle cx="18.5" cy="18.5" r="18.5" fill="#F81A2C"/>
<path d="M1.95645 19.1393L16.7801 4.31567L19.7911 7.32665L4.96743 22.1503L1.95645 19.1393Z" fill="white"/>
<path d="M16.5372 10.3703L22.5071 4.40051L25.518 7.41149L19.5482 13.3813L16.5372 10.3703Z" fill="white"/>
<path d="M13.7648 30.577L31.2186 13.1232L34.2296 16.1341L16.7757 33.588L13.7648 30.577Z" fill="white"/>
<path d="M8.0033 24.8186L25.4599 7.36191L28.4709 10.3729L11.0143 27.8295L8.0033 24.8186Z" fill="white"/>
<path d="M22.2858 16.2903L28.3335 10.2426L31.3445 13.2536L25.2968 19.3013L22.2858 16.2903Z" fill="white"/>
<path d="M10.8756 27.6838L13.9531 24.6063L16.9641 27.6172L13.8866 30.6947L10.8756 27.6838Z" fill="white"/>
</svg>
